<?xml version="1.0" encoding="UTF-8"?>
<svg version="1.1" xmlns="http://www.w3.org/2000/svg"
  width="1024pt" height="921pt" viewBox="0 0 1024 921"
  preserveAspectRatio="xMidYMid meet">
  <g transform="translate(0,921) scale(0.1,-0.1)" fill="#FF6900" stroke="none">
    <path d="M2255 8635 c-234 -44 -413 -182 -513 -395 -34 -74 -62 -172 -62 -219
0 -41 34 -108 60 -116 11 -3 1465 -6 3232 -7 2419 0 3234 3 3297 12 46 6 111
21 145 34 127 46 261 156 344 281 73 110 127 295 108 369 -15 60 240 56 -3303
55 -2633 -1 -3251 -3 -3308 -14z"/>
    <path d="M2440 7269 c-218 -25 -435 -148 -573 -325 -80 -101 -147 -251 -176
-389 -18 -89 -19 -107 -9 -141 19 -69 -27 -65 832 -66 l774 0 -4 -2382 c-2
-1392 0 -2435 6 -2511 20 -293 112 -501 299 -684 102 -99 229 -177 361 -223
125 -43 212 -48 910 -55 766 -6 963 1 1105 42 215 62 428 237 534 437 82 156
108 296 63 340 l-23 23 -1047 5 c-1035 5 -1048 5 -1092 26 -53 24 -104 80
-134 143 l-21 46 0 2400 c0 2573 -3 2434 50 2611 38 126 117 258 266 446 93
117 99 128 99 182 0 36 -5 48 -26 65 -27 21 -29 21 -1073 20 -575 -1 -1080 -5
-1121 -10z"/>
    <path d="M6252 7269 c-224 -22 -406 -105 -560 -257 -155 -153 -236 -308 -278
-537 -15 -81 -17 -246 -19 -1715 -1 -894 1 -1722 5 -1840 7 -188 12 -227 35
-310 31 -108 64 -177 131 -276 129 -189 330 -339 554 -415 98 -32 155 -37 188
-13 l22 15 1 2112 c0 1162 4 2136 8 2165 9 60 33 98 82 127 33 19 54 20 689
22 826 3 854 4 954 37 184 62 348 182 468 341 88 117 156 287 165 415 5 71 4
78 -20 105 l-25 30 -1159 1 c-637 1 -1195 -2 -1241 -7z"/>
  </g>
</svg>
